<?xml version="1.0" encoding="UTF-8" standalone="no"?><!DOCTYPE svg PUBLIC "-//W3C//DTD SVG 1.1//EN" "http://www.w3.org/Graphics/SVG/1.1/DTD/svg11.dtd"><svg width="35px" height="35px" viewBox="0 0 40 40" version="1.1" xmlns="http://www.w3.org/2000/svg" xmlns:xlink="http://www.w3.org/1999/xlink" xml:space="preserve" style="fill-rule:evenodd;clip-rule:evenodd;stroke-linejoin:round;stroke-miterlimit:1.41421;"><g><path d="M14.576,38.854c2.478,-2.479 3.6,-5.983 3.131,-9.456c-0.171,-1.274 -0.219,-2.575 -0.127,-3.876c0.031,-0.468 0.079,-0.937 0.153,-1.397c-3.337,4.178 -4.432,9.688 -3.157,14.729Z" style="fill:#d79622;fill-rule:nonzero;"/><path d="M9.044,32.7l2.492,-2.492c-0.32,1.818 -0.398,3.684 -0.228,5.527c0.132,1.419 0.408,2.825 0.828,4.192c-0.223,0.022 -0.451,0.021 -0.674,0c-0.916,-0.075 -1.805,-0.447 -2.514,-1.122c-1.568,-1.497 -1.704,-3.954 -0.311,-5.619l0.004,0.005c0.114,-0.175 0.25,-0.337 0.403,-0.491Z" style="fill:#d79622;fill-rule:nonzero;"/><path d="M15.818,22.21c-0.46,0.074 -0.929,0.122 -1.397,0.153c-1.301,0.092 -2.602,0.044 -3.876,-0.127c-3.473,-0.469 -6.977,0.653 -9.456,3.131c5.041,1.275 10.551,0.18 14.729,-3.157Z" style="fill:#d79622;fill-rule:nonzero;"/><path d="M7.243,30.899l2.492,-2.492c-1.818,0.32 -3.684,0.398 -5.527,0.228c-1.419,-0.132 -2.825,-0.408 -4.192,-0.828c-0.021,0.223 -0.021,0.451 0,0.674c0.075,0.916 0.447,1.805 1.122,2.514c1.497,1.568 3.954,1.704 5.619,0.311l-0.005,-0.004c0.175,-0.114 0.337,-0.25 0.491,-0.403Z" style="fill:#d79622;fill-rule:nonzero;"/><path d="M38.854,25.424c-2.479,-2.478 -5.983,-3.6 -9.456,-3.131c-1.274,0.171 -2.575,0.219 -3.876,0.127c-0.468,-0.031 -0.937,-0.079 -1.397,-0.153c4.178,3.337 9.688,4.432 14.729,3.157Z" style="fill:#d79622;fill-rule:nonzero;"/><path d="M32.7,30.956l-2.492,-2.492c1.818,0.32 3.684,0.398 5.527,0.228c1.419,-0.132 2.825,-0.408 4.192,-0.828c0.022,0.223 0.021,0.451 0,0.674c-0.075,0.916 -0.447,1.805 -1.122,2.514c-1.497,1.568 -3.954,1.704 -5.619,0.311l0.005,-0.004c-0.175,-0.114 -0.337,-0.25 -0.491,-0.403Z" style="fill:#d79622;fill-rule:nonzero;"/><path d="M22.21,24.182c0.074,0.46 0.122,0.929 0.153,1.397c0.092,1.301 0.044,2.602 -0.127,3.876c-0.469,3.473 0.653,6.977 3.131,9.456c1.275,-5.041 0.18,-10.551 -3.157,-14.729Z" style="fill:#d79622;fill-rule:nonzero;"/><path d="M30.899,32.757l-2.492,-2.492c0.32,1.818 0.398,3.684 0.228,5.527c-0.132,1.419 -0.408,2.825 -0.828,4.192c0.223,0.021 0.451,0.021 0.674,0c0.916,-0.075 1.805,-0.447 2.514,-1.122c1.568,-1.497 1.704,-3.954 0.311,-5.619l-0.004,0.005c-0.114,-0.175 -0.25,-0.337 -0.403,-0.491Z" style="fill:#d79622;fill-rule:nonzero;"/><path d="M25.424,1.146c-2.478,2.479 -3.6,5.983 -3.131,9.456c0.171,1.274 0.219,2.575 0.127,3.876c-0.031,0.468 -0.079,0.937 -0.153,1.397c3.337,-4.178 4.432,-9.688 3.157,-14.729Z" style="fill:#d79622;fill-rule:nonzero;"/><path d="M30.956,7.3l-2.492,2.492c0.32,-1.818 0.398,-3.684 0.228,-5.527c-0.132,-1.419 -0.408,-2.825 -0.828,-4.192c0.223,-0.022 0.451,-0.021 0.674,0c0.916,0.075 1.805,0.447 2.514,1.122c1.568,1.497 1.704,3.954 0.311,5.619l-0.004,-0.005c-0.114,0.175 -0.25,0.337 -0.403,0.491Z" style="fill:#d79622;fill-rule:nonzero;"/><path d="M24.182,17.79c0.46,-0.074 0.929,-0.123 1.397,-0.153c1.301,-0.092 2.602,-0.044 3.876,0.127c3.473,0.468 6.977,-0.653 9.456,-3.132c-5.041,-1.274 -10.551,-0.179 -14.729,3.158Z" style="fill:#d79622;fill-rule:nonzero;"/><path d="M32.757,9.101l-2.492,2.492c1.818,-0.32 3.684,-0.398 5.527,-0.228c1.419,0.132 2.825,0.408 4.192,0.828c0.021,-0.223 0.021,-0.451 0,-0.674c-0.075,-0.916 -0.447,-1.805 -1.122,-2.514c-1.497,-1.568 -3.954,-1.704 -5.619,-0.311l0.005,0.004c-0.175,0.114 -0.337,0.25 -0.491,0.403Z" style="fill:#d79622;fill-rule:nonzero;"/><path d="M1.146,14.576c2.479,2.478 5.983,3.6 9.456,3.131c1.274,-0.171 2.575,-0.219 3.876,-0.127c0.468,0.031 0.937,0.079 1.397,0.153c-4.178,-3.337 -9.688,-4.432 -14.729,-3.157Z" style="fill:#d79622;fill-rule:nonzero;"/><path d="M7.3,9.044l2.492,2.492c-1.818,-0.32 -3.684,-0.398 -5.527,-0.228c-1.419,0.132 -2.825,0.408 -4.192,0.828c-0.022,-0.223 -0.022,-0.451 0,-0.674c0.075,-0.916 0.447,-1.805 1.122,-2.514c1.497,-1.568 3.954,-1.704 5.619,-0.311l-0.005,0.004c0.175,0.114 0.337,0.25 0.491,0.403Z" style="fill:#d79622;fill-rule:nonzero;"/><path d="M17.79,15.818c-0.074,-0.46 -0.123,-0.929 -0.153,-1.397c-0.092,-1.301 -0.044,-2.602 0.127,-3.876c0.469,-3.473 -0.653,-6.977 -3.132,-9.456c-1.274,5.041 -0.179,10.551 3.158,14.729Z" style="fill:#d79622;fill-rule:nonzero;"/><path d="M9.101,7.243l2.492,2.492c-0.32,-1.818 -0.398,-3.684 -0.228,-5.527c0.132,-1.419 0.408,-2.825 0.828,-4.192c-0.223,-0.021 -0.451,-0.021 -0.674,0c-0.916,0.075 -1.805,0.447 -2.514,1.122c-1.568,1.497 -1.704,3.954 -0.311,5.619l0.004,-0.005c0.114,0.175 0.25,0.337 0.403,0.491Z" style="fill:#d79622;fill-rule:nonzero;"/></g></svg>